<?xml version="1.0" encoding="utf-8"?>
<!-- Generator: Adobe Illustrator 16.0.4, SVG Export Plug-In . SVG Version: 6.00 Build 0)  -->
<!DOCTYPE svg PUBLIC "-//W3C//DTD SVG 1.1//EN" "http://www.w3.org/Graphics/SVG/1.1/DTD/svg11.dtd">
<svg version="1.1" id="Layer_1" xmlns="http://www.w3.org/2000/svg" xmlns:xlink="http://www.w3.org/1999/xlink" x="0px" y="0px"
	 width="180px" height="69.214px" viewBox="0 0 180 69.214" enable-background="new 0 0 180 69.214" xml:space="preserve">
<g>
	<path fill="#00257A" d="M16.724,35.957l-2.668,4.608c10.667,6.907,17.157,16.675,19.066,20.468h0.794
		C29.522,49.362,22.557,41.097,16.724,35.957L16.724,35.957z"/>
	<path fill="#00257A" d="M19.207,31.67c11.452,10.338,15.21,24.63,15.895,29.364h0.735c-0.432-6.305-3.143-24.11-13.613-34.575
		L19.207,31.67L19.207,31.67z"/>
	<path fill="#00257A" d="M61.95,44.703l-0.017-0.029c-6.771,3.022-15.033,8.416-21.577,16.363h0.75
		c0.585-0.514,2.115-1.629,2.954-2.305c6.922-4.844,14.01-7.711,19.832-9.26l7.523,13.096l-30.297,0.016v-1.547L32.09,61.04v1.528
		H2.961l12.52-21.136l-1.424-0.864L0,64.232h32.09v-1.527h9.028v1.542l33.258-0.017c0,0-8.856-15.143-8.711-15.176
		c9.074-2.043,15.502-1.158,16.208-1.051l3.618-7.771C76.163,39.888,68.305,41.873,61.95,44.703L61.95,44.703z"/>
	<path fill="#00257A" d="M57.479,34.906L37.382,0L25.319,21.112c3.109,3.289,11.528,14.415,11.711,39.922h0.91
		c0.621-26.2-5.075-38.745-8.426-43.785l7.879-13.892l18.78,32.62C44.288,46.042,39.457,58.915,38.72,61.035h0.82
		c1.55-2.925,6.147-9.271,12.009-14.794c14.832-13.838,32.119-14.062,37.544-13.744l4.118-8.847
		C77.443,23.136,65.834,28.272,57.479,34.906L57.479,34.906z"/>
	<path fill="#00257A" d="M105.982,53.261c-0.811-0.646-1.949-0.994-3.164-0.994c-2.537,0-5.101,1.619-6.022,3.791
		c-1.397,3.295,3.116,3.533,2.235,5.611c-0.354,0.828-1.306,1.381-2.39,1.381c-1.048,0-2.305-0.553-3.002-1.289l-1.334,2.19
		c0.808,0.735,1.938,1.194,3.759,1.194c2.812,0,5.021-1.82,5.879-3.846c1.492-3.517-3.021-3.754-2.258-5.557
		c0.354-0.828,1.377-1.381,2.354-1.381c0.957,0,2.08,0.516,2.639,1.104L105.982,53.261L105.982,53.261z"/>
	<path fill="#00257A" d="M114.305,56.755c-0.942-0.201-1.646-0.275-2.695-0.275c-4.507,0-7.176,2.65-8.207,5.08
		c-0.89,2.097-0.291,3.586,1.403,3.586c0.862,0,1.726-0.293,2.806-0.938l-0.438,0.773h2.48L114.305,56.755L114.305,56.755z
		 M108.553,62.552c-0.773,0.479-1.527,0.736-2.098,0.736c-0.752,0-0.965-0.588-0.533-1.602c0.438-1.028,1.913-3.422,4.869-3.108
		L108.553,62.552L108.553,62.552z"/>
	<path fill="#00257A" d="M119.118,56.628h-2.481l-4.723,8.354h2.48L119.118,56.628L119.118,56.628z M119.692,53.021
		c-0.718,0-1.529,0.57-1.834,1.289c-0.306,0.717,0.023,1.287,0.74,1.287s1.529-0.57,1.834-1.287
		C120.739,53.591,120.411,53.021,119.692,53.021L119.692,53.021z"/>
	<path fill="#00257A" d="M123.915,56.628h-2.482l-4.723,8.354h2.48l3.034-5.373c1.229-0.901,2.074-1.288,2.644-1.288
		c0.662,0,0.479,0.864,0.024,1.675l-2.813,4.986h2.48l2.914-5.172c0.967-1.711,1.137-3.33-0.794-3.33
		c-1.013,0-1.972,0.312-3.312,1.084L123.915,56.628L123.915,56.628z"/>
	<path fill="#00257A" d="M135.694,54.862h-2.518l-1.044,1.767h-1.692l-1.093,1.84h1.69l-1.939,3.184
		c-1.054,1.75-1.005,3.496,1.055,3.496c0.736,0,1.388-0.147,2.36-0.533l0.929-2.189c-0.894,0.368-1.312,0.498-1.646,0.498
		c-0.699,0-0.501-0.811,0.062-1.75l1.625-2.703h1.84l1.112-1.842h-1.839L135.694,54.862L135.694,54.862z"/>
	<path fill="#00257A" d="M143.249,61.154c1.721-2.668,1.156-4.674-1.455-4.674c-2.521,0-5.391,2.043-6.477,4.602
		c-1.048,2.465-0.107,4.064,2.43,4.064c0.863,0,1.97-0.219,3.164-0.605l1.324-2.08c-1.597,0.553-2.68,0.848-3.449,0.848
		c-1.195,0-1.707-0.791-1-2.153L143.249,61.154L143.249,61.154z M138.636,59.72c0.812-1.049,1.566-1.527,2.376-1.527
		c0.847,0,1.078,0.626,0.548,1.527H138.636L138.636,59.72z"/>
	<polygon fill="#00257A" points="150.907,59.573 145.149,59.573 143.723,62.111 149.461,62.111 	"/>
	<polygon fill="#00257A" points="163.812,52.433 156.584,52.433 149.491,64.982 152.159,64.982 155.212,59.609 159.13,59.609 
		160.313,57.509 156.397,57.509 158.065,54.531 162.608,54.531 	"/>
	<path fill="#00257A" d="M168.993,60.419c1.016-2.393-0.078-3.939-2.469-3.939c-2.646,0-5.709,2.099-6.785,4.637
		c-0.961,2.264,0.127,4.029,2.5,4.029C164.925,65.146,167.86,63.087,168.993,60.419L168.993,60.419z M166.448,60.343
		c-0.492,1.16-1.896,2.779-3.33,2.779c-0.734,0-1.406-0.589-0.866-1.859c0.36-0.847,1.688-2.76,3.306-2.76
		C166.567,58.503,166.916,59.241,166.448,60.343L166.448,60.343z"/>
	<polygon fill="#00257A" points="180,56.628 177.405,56.628 173.131,61.503 173.562,56.628 171.079,56.628 170.528,64.208 
		165.978,69.214 168.589,69.214 	"/>
	<path fill="#00257A" d="M113.887,36.332h-2.482l-2.326,4.141c-0.334-0.036-0.752-0.091-1.176-0.091
		c-3.494,0-6.201,2.392-7.162,4.654c-1.045,2.465,0.174,4.011,3.137,4.011c0.918,0,1.841-0.092,2.984-0.275L113.887,36.332
		L113.887,36.332z M105.417,46.929c-0.281,0.056-0.48,0.094-0.72,0.094c-1.381,0-1.906-0.756-1.391-1.971
		c0.584-1.379,2.312-2.761,4.559-2.466L105.417,46.929L105.417,46.929z"/>
	<path fill="#00257A" d="M118.685,45.054c1.721-2.668,1.154-4.674-1.457-4.674c-2.52,0-5.392,2.042-6.476,4.6
		c-1.047,2.466-0.105,4.066,2.43,4.066c0.864,0,1.972-0.222,3.162-0.607l1.324-2.078c-1.593,0.552-2.677,0.846-3.449,0.846
		c-1.192,0-1.705-0.791-0.998-2.152H118.685L118.685,45.054z M114.069,43.617c0.812-1.049,1.567-1.525,2.375-1.525
		c0.849,0,1.08,0.625,0.549,1.525H114.069L114.069,43.617z"/>
	<path fill="#00257A" d="M123.17,20.524c-1.117-0.311-2.103-0.461-3.205-0.461c-4.836,0-9.426,2.926-11.215,7.14
		c-1.452,3.421,0.027,5.741,3.669,5.741c1.49,0,3.003-0.312,4.836-0.993l1.574-2.797c-2.24,1.029-3.75,1.471-5.188,1.471
		c-2.206,0-3.03-1.305-2.157-3.366c0.828-1.95,3.396-4.875,7.423-4.875c1.102,0,2.008,0.165,2.838,0.459L123.17,20.524
		L123.17,20.524z"/>
	<path fill="#00257A" d="M125.679,23.505h1.344l4.598-3.165h-2.963L125.679,23.505L125.679,23.505z M128.202,28.952
		c1.72-2.668,1.154-4.674-1.455-4.674c-2.521,0-5.391,2.042-6.478,4.602c-1.048,2.465-0.106,4.064,2.431,4.064
		c0.863,0,1.97-0.221,3.164-0.605l1.322-2.08c-1.595,0.552-2.678,0.846-3.447,0.846c-1.196,0-1.707-0.791-1-2.152H128.202
		L128.202,28.952z M123.588,27.515c0.813-1.047,1.567-1.526,2.378-1.526c0.845,0,1.076,0.626,0.547,1.526H123.588L123.588,27.515z"
		/>
	<path fill="#00257A" d="M140.198,24.426h-4.672c-2.371,0-4.384,1.619-5.031,3.146c-0.445,1.049-0.312,1.821,0.43,2.412
		c-0.633,0.146-0.893,0.239-1.246,0.421c-0.495,0.258-0.923,0.699-1.104,1.125c-0.256,0.605-0.055,1.213,0.504,1.544
		c-1.586,0.441-2.512,1.068-2.856,1.876c-0.392,0.92-0.104,2.062,3.097,2.062c3.402,0,4.873-1.344,5.459-2.725
		c1.354-3.183-4.084-2.245-3.68-3.199c0.148-0.351,0.5-0.441,1.696-0.441c2.391,0,4.155-1.566,4.789-3.055
		c0.202-0.479,0.271-0.811,0.25-1.325h1.345L140.198,24.426L140.198,24.426z M135.411,27.295c-0.366,0.863-1.041,1.804-2.127,1.804
		c-0.717,0-0.979-0.423-0.666-1.16c0.509-1.195,1.26-1.839,2.142-1.839C135.478,26.101,135.725,26.56,135.411,27.295L135.411,27.295
		z M130.506,33.57c1.351,0.331,2.082,0.423,1.815,1.049c-0.242,0.571-0.888,0.791-2.285,0.791c-1.286,0-1.721-0.273-1.471-0.863
		C128.76,34.087,129.303,33.718,130.506,33.57L130.506,33.57z"/>
	<path fill="#00257A" d="M146.589,28.952c1.722-2.668,1.154-4.674-1.455-4.674c-2.52,0-5.391,2.042-6.477,4.602
		c-1.047,2.465-0.107,4.064,2.431,4.064c0.864,0,1.969-0.221,3.163-0.605l1.324-2.08c-1.596,0.552-2.678,0.846-3.449,0.846
		c-1.196,0-1.706-0.791-0.999-2.152H146.589L146.589,28.952z M141.976,27.515c0.812-1.047,1.567-1.526,2.377-1.526
		c0.848,0,1.077,0.626,0.547,1.526H141.976L141.976,27.515z"/>
	<path fill="#00257A" d="M155.062,22.805h-2.482l-1.719,3.056c-2.297,1.378-3.535,2.999-3.66,3.294
		c-0.039,0.091-0.017,0.165,0.076,0.165c0.441,0,0.817-0.755,2.635-1.786l-5.346,9.477h2.48l2.386-4.232
		c0.396,0.111,0.63,0.166,1.052,0.166c2.924,0,6.188-2.227,7.373-5.023c0.93-2.19,0.075-3.644-2.113-3.644
		c-0.201,0-0.467,0.019-0.732,0.036c-0.266,0.017-0.559,0.056-0.857,0.111L155.062,22.805L155.062,22.805z M153.13,26.23
		c2.029-0.405,2.745,0.294,2.128,1.749c-0.508,1.195-1.894,2.944-3.99,2.944c-0.312,0-0.442-0.036-0.684-0.165L153.13,26.23
		L153.13,26.23z"/>
</g>
</svg>
